<svg xmlns="http://www.w3.org/2000/svg" viewBox="0 0 64 64">
  <defs>
    <linearGradient id="bg" x1="0%" y1="0%" x2="100%" y2="100%">
      <stop offset="0%" style="stop-color:#0f766e"/>
      <stop offset="100%" style="stop-color:#0d9488"/>
    </linearGradient>
  </defs>
  <!-- Background -->
  <rect width="64" height="64" rx="14" fill="url(#bg)"/>
  <!-- Tooth shape -->
  <path fill="white" d="
    M46 18 C46 13.6 42.4 10 38 10 L35 10 C33.3 10 31.8 10.8 30.8 12 L30 13 L29.2 12 C28.2 10.8 26.7 10 25 10 L22 10 C17.6 10 14 13.6 14 18 C14 21.4 16 24.4 19 25.8 L21 36 C21.6 39 24.2 41 27.2 41 C28.8 41 30.2 40.3 31.2 39.1 L32 38 L32.8 39.1 C33.8 40.3 35.2 41 36.8 41 C39.8 41 42.4 39 43 36 L45 25.8 C48 24.4 46 18 46 18 Z
  " opacity="0.95"/>
  <!-- Tooth roots -->
  <path fill="white" opacity="0.5" d="
    M26 42 L25 49 C24.8 50.8 23.2 52 21.5 52 C19.7 52 18.3 50.5 18.5 48.7 L19.5 42 Z
    M38 42 L44.5 48.7 C44.7 50.5 43.3 52 41.5 52 C39.8 52 38.2 50.8 38 49 L38 42 Z
    M31 42 L31 54 C31 54.6 31.4 55 32 55 C32.6 55 33 54.6 33 54 L33 42 Z
  "/>
</svg>
