<svg xmlns="http://www.w3.org/2000/svg" viewBox="0 0 64 64">
  <rect width="64" height="64" rx="14" fill="#0d9488"/>
  <path fill="white" d="M44 14H20c-4.4 0-8 3.6-8 8 0 3.2 1.8 6 4.6 7.4l1.8 9.6c.5 2.6 2.8 4.5 5.4 4.5 1.8 0 3.5-.9 4.5-2.4L30 36h4l1.7 5.1c1 1.5 2.7 2.4 4.5 2.4 2.6 0 4.9-1.9 5.4-4.5l1.8-9.6C50 28 51.8 25.2 51.8 22c0-4.4-3.4-8-7.8-8z"/>
  <path fill="white" opacity="0.4" d="M28 46c0 .5-.1 1-.2 1.5l-1 5c-.3 1.3-1.4 2.2-2.8 2.2-1.6 0-2.9-1.3-2.9-2.9V46h6.9zM36 46v5.8c0 1.6-1.3 2.9-2.9 2.9-1.4 0-2.5-.9-2.8-2.2l-1-5c-.1-.5-.2-1-.2-1.5H36z"/>
</svg>
